<svg xmlns="http://www.w3.org/2000/svg" xmlns:xlink="http://www.w3.org/1999/xlink" xmlns:inkscape="http://www.inkscape.org/namespaces/inkscape" version="1.1" width="67.20664" height="67.20664" viewBox="0 0 67.20664 67.20664">
<path transform="matrix(1,0,0,-1,0,67.20664)" d="M33.60086 42.17992C34.82987 42.17992 35.84287 42.81893 35.97986 43.64592L37.19486 57.38192C37.19486 58.73992 35.60486 59.85592 33.60486 59.85592 31.60688 59.85592 30.01786 58.73992 30.01786 57.38192L31.23188 43.64592C31.36487 42.81893 32.37787 42.17992 33.60486 42.17992H33.60086Z" fill="#fcba2e"/>
<path transform="matrix(1,0,0,-1,0,67.20664)" d="M26.17508 37.88842C26.79209 38.95241 26.74509 40.1494 26.0951 40.68041L14.80509 48.59841C13.63208 49.27941 11.87009 48.46041 10.87009 46.72841 9.86908 44.99743 10.04608 43.06542 11.2201 42.3864L23.7201 36.56643C24.50208 36.27541 25.56708 36.83242 26.18009 37.8954L26.17508 37.88842Z" fill="#fcba2e"/>
<path transform="matrix(1,0,0,-1,0,67.20664)" d="M41.03055 37.89571C41.64554 36.83272 42.70658 36.27471 43.48752 36.56572L55.99155 42.38671C57.16953 43.06572 57.33756 44.9977 56.34055 46.72872 55.33756 48.45971 53.57553 49.27871 52.40555 48.59871L41.11356 40.68071C40.46854 40.1487 40.42154 38.95171 41.03458 37.88872L41.03055 37.89571Z" fill="#fcba2e"/>
<path transform="matrix(1,0,0,-1,0,67.20664)" d="M33.60086 25.02172C34.82987 25.02172 35.84287 24.38573 35.97986 23.55971L37.19486 9.82473C37.19486 8.4637 35.60486 7.35073 33.60486 7.35073 31.60688 7.35073 30.01786 8.4637 30.01786 9.82473L31.23188 23.55971C31.36487 24.38573 32.37787 25.02172 33.60486 25.02172H33.60086Z" fill="#fcba2e"/>
<path transform="matrix(1,0,0,-1,0,67.20664)" d="M41.03055 29.31121C41.64554 30.37722 42.70658 30.9312 43.48752 30.63622L55.99155 24.82219C57.16953 24.14022 57.33756 22.2072 56.34055 20.4742 55.33756 18.74822 53.57553 17.92922 52.40555 18.6032L41.11356 26.51821C40.46854 27.05519 40.42154 28.25121 41.03458 29.3142L41.03055 29.31121Z" fill="#fcba2e"/>
<path transform="matrix(1,0,0,-1,0,67.20664)" d="M26.17508 29.31411C26.79209 28.25011 26.74509 27.0551 26.0951 26.51812L14.80509 18.60512C13.63208 17.92711 11.87009 18.74712 10.87009 20.47609 9.86908 22.20711 10.04608 24.1411 11.2201 24.8221L23.7201 30.63512C24.50208 30.93111 25.56708 30.37709 26.1811 29.31112L26.17508 29.31411Z" fill="#fcba2e"/>
</svg>
